<?xml version="1.0" encoding="iso-8859-1"?>
<!-- Generator: Adobe Illustrator 19.0.0, SVG Export Plug-In . SVG Version: 6.00 Build 0)  -->
<svg version="1.1" id="Layer_1" xmlns="http://www.w3.org/2000/svg" xmlns:xlink="http://www.w3.org/1999/xlink" x="0px" y="0px"
	 viewBox="0 0 502 502" style="enable-background:new 0 0 502 502;" xml:space="preserve">
<g>
	<path style="fill:#5CC9C1;" d="M461,397H41c-17.121,0-31-13.879-31-31V136c0-17.121,13.879-31,31-31h420c17.121,0,31,13.879,31,31
		v230C492,383.121,478.121,397,461,397z"/>
	<rect x="10" y="149" style="fill:#FFF9E6;" width="482" height="50"/>
	<g>
		<path d="M0,366c0,22.607,18.393,41,41,41h420c22.607,0,41-18.393,41-41V136c0-22.607-18.393-41-41-41H41
			c-22.607,0-41,18.393-41,41V366z M41,115h420c11.58,0,21,9.42,21,21v3H20v-3C20,124.42,29.42,115,41,115z M482,189H20v-30h462V189
			z M461,387H41c-11.58,0-21-9.42-21-21V209h462v157C482,377.58,472.58,387,461,387z"/>
		<path d="M242,263H67c-5.523,0-10,4.477-10,10s4.477,10,10,10h175c5.523,0,10-4.477,10-10S247.523,263,242,263z"/>
		<path d="M178,310H67c-5.523,0-10,4.477-10,10s4.477,10,10,10h111c5.523,0,10-4.477,10-10S183.523,310,178,310z"/>
		<path d="M242,310h-27c-5.523,0-10,4.477-10,10s4.477,10,10,10h27c5.523,0,10-4.477,10-10S247.523,310,242,310z"/>
	</g>
</g>
<g>
</g>
<g>
</g>
<g>
</g>
<g>
</g>
<g>
</g>
<g>
</g>
<g>
</g>
<g>
</g>
<g>
</g>
<g>
</g>
<g>
</g>
<g>
</g>
<g>
</g>
<g>
</g>
<g>
</g>
</svg>
